<svg xmlns="http://www.w3.org/2000/svg" viewBox="0 0 32 32">
  <path fill="#1a1a1a" transform="translate(2.000 14.000) scale(0.007570 -0.007570)" d="M616 909Q511 909 451.0 816.5Q391 724 391 559Q391 394 451.0 301.5Q511 209 616 209Q722 209 782.0 301.5Q842 394 842 559Q842 724 782.0 816.5Q722 909 616 909ZM98 559Q98 830 238.5 988.5Q379 1147 616 1147Q854 1147 994.5 988.5Q1135 830 1135 559Q1135 288 994.5 129.5Q854 -29 616 -29Q379 -29 238.5 129.5Q98 288 98 559Z"/>
  <path fill="#1a1a1a" transform="translate(11.333 14.000) scale(0.007570 -0.007570)" d="M791 961V1556H1083V0H791V166Q744 69 669.5 20.0Q595 -29 494 -29Q302 -29 196.0 125.0Q90 279 90 559Q90 843 197.5 995.0Q305 1147 504 1147Q594 1147 665.5 1100.5Q737 1054 791 961ZM383 557Q383 395 437.0 303.0Q491 211 586 211Q681 211 736.0 303.0Q791 395 791 557Q791 719 736.0 811.0Q681 903 586 903Q491 903 437.0 811.0Q383 719 383 557Z"/>
  <path fill="#1a1a1a" transform="translate(20.667 14.000) scale(0.007570 -0.007570)" d="M739 1218V1120H1083V895H739V0H446V895H174V1120H446V1198Q446 1400 530.0 1478.0Q614 1556 842 1556H1083V1331H854Q788 1331 764.5 1307.0Q741 1283 739 1218Z"/>
  <path fill="#2563eb" transform="translate(2.000 29.000) scale(0.007570 -0.007570)" d="M174 1556H467V739L819 1120H1174L750 702L1198 0H874L567 524L467 428V0H174Z"/>
  <path fill="#2563eb" transform="translate(11.333 29.000) scale(0.007570 -0.007570)" d="M221 1120H801V225H1165V0H143V225H508V895H221ZM508 1665H801V1323H508Z"/>
  <path fill="#2563eb" transform="translate(20.667 29.000) scale(0.007570 -0.007570)" d="M690 1438V1120H1073V895H690V365Q690 290 726.5 257.5Q763 225 848 225H1073V0H827Q575 0 486.0 80.5Q397 161 397 379V895H111V1120H397V1438Z"/>
</svg>
